<?xml version="1.0" encoding="utf-8" standalone="no"?>
<!DOCTYPE svg PUBLIC "-//W3C//DTD SVG 1.1//EN"
  "http://www.w3.org/Graphics/SVG/1.1/DTD/svg11.dtd">
<svg height="360pt" version="1.1" viewBox="0 0 1080 360" width="1080pt" xmlns="http://www.w3.org/2000/svg" xmlns:xlink="http://www.w3.org/1999/xlink">
 <metadata>
  <rdf:RDF xmlns:cc="http://creativecommons.org/ns#" xmlns:dc="http://purl.org/dc/elements/1.1/" xmlns:rdf="http://www.w3.org/1999/02/22-rdf-syntax-ns#">
   <cc:Work>
    <dc:type rdf:resource="http://purl.org/dc/dcmitype/StillImage"/>
    <dc:date>2021-12-17T17:58:41.452791</dc:date>
    <dc:format>image/svg+xml</dc:format>
    <dc:creator>
     <cc:Agent>
      <dc:title>Matplotlib v3.4.3, https://matplotlib.org/</dc:title>
     </cc:Agent>
    </dc:creator>
   </cc:Work>
  </rdf:RDF>
 </metadata>
 <defs>
  <style type="text/css">*{stroke-linecap:butt;stroke-linejoin:round;}</style>
 </defs>
 <g id="figure_1">
  <g id="patch_1">
   <path d="M 0 360 
L 1080 360 
L 1080 0 
L 0 0 
z
" style="fill:#ffffff;"/>
  </g>
  <g id="axes_1">
   <g id="patch_2">
    <path d="M 135 315 
L 316.956522 315 
L 316.956522 43.2 
L 135 43.2 
z
" style="fill:#eaeaf2;"/>
   </g>
   <g id="matplotlib.axis_1">
    <g id="ytick_1">
     <g id="line2d_1">
      <path clip-path="url(#p5815e2fdc6)" d="M 135 304.723322 
L 316.956522 304.723322 
" style="fill:none;stroke:#ffffff;stroke-linecap:round;"/>
     </g>
     <g id="line2d_2"/>
     <g id="text_1">
      <!-- −0.04 -->
      <g style="fill:#262626;" transform="translate(102.698437 308.302228)scale(0.1 -0.1)">
       <defs>
        <path d="M 3381 1997 
L 356 1997 
L 356 2522 
L 3381 2522 
L 3381 1997 
z
" id="ArialMT-2212" transform="scale(0.015625)"/>
        <path d="M 266 2259 
Q 266 3072 433 3567 
Q 600 4063 929 4331 
Q 1259 4600 1759 4600 
Q 2128 4600 2406 4451 
Q 2684 4303 2865 4023 
Q 3047 3744 3150 3342 
Q 3253 2941 3253 2259 
Q 3253 1453 3087 958 
Q 2922 463 2592 192 
Q 2263 -78 1759 -78 
Q 1097 -78 719 397 
Q 266 969 266 2259 
z
M 844 2259 
Q 844 1131 1108 757 
Q 1372 384 1759 384 
Q 2147 384 2411 759 
Q 2675 1134 2675 2259 
Q 2675 3391 2411 3762 
Q 2147 4134 1753 4134 
Q 1366 4134 1134 3806 
Q 844 3388 844 2259 
z
" id="ArialMT-30" transform="scale(0.015625)"/>
        <path d="M 581 0 
L 581 641 
L 1222 641 
L 1222 0 
L 581 0 
z
" id="ArialMT-2e" transform="scale(0.015625)"/>
        <path d="M 2069 0 
L 2069 1097 
L 81 1097 
L 81 1613 
L 2172 4581 
L 2631 4581 
L 2631 1613 
L 3250 1613 
L 3250 1097 
L 2631 1097 
L 2631 0 
L 2069 0 
z
M 2069 1613 
L 2069 3678 
L 634 1613 
L 2069 1613 
z
" id="ArialMT-34" transform="scale(0.015625)"/>
       </defs>
       <use xlink:href="#ArialMT-2212"/>
       <use x="58.398438" xlink:href="#ArialMT-30"/>
       <use x="114.013672" xlink:href="#ArialMT-2e"/>
       <use x="141.796875" xlink:href="#ArialMT-30"/>
       <use x="197.412109" xlink:href="#ArialMT-34"/>
      </g>
     </g>
    </g>
    <g id="ytick_2">
     <g id="line2d_3">
      <path clip-path="url(#p5815e2fdc6)" d="M 135 258.379531 
L 316.956522 258.379531 
" style="fill:none;stroke:#ffffff;stroke-linecap:round;"/>
     </g>
     <g id="line2d_4"/>
     <g id="text_2">
      <!-- −0.02 -->
      <g style="fill:#262626;" transform="translate(102.698437 261.958437)scale(0.1 -0.1)">
       <defs>
        <path d="M 3222 541 
L 3222 0 
L 194 0 
Q 188 203 259 391 
Q 375 700 629 1000 
Q 884 1300 1366 1694 
Q 2113 2306 2375 2664 
Q 2638 3022 2638 3341 
Q 2638 3675 2398 3904 
Q 2159 4134 1775 4134 
Q 1369 4134 1125 3890 
Q 881 3647 878 3216 
L 300 3275 
Q 359 3922 746 4261 
Q 1134 4600 1788 4600 
Q 2447 4600 2831 4234 
Q 3216 3869 3216 3328 
Q 3216 3053 3103 2787 
Q 2991 2522 2730 2228 
Q 2469 1934 1863 1422 
Q 1356 997 1212 845 
Q 1069 694 975 541 
L 3222 541 
z
" id="ArialMT-32" transform="scale(0.015625)"/>
       </defs>
       <use xlink:href="#ArialMT-2212"/>
       <use x="58.398438" xlink:href="#ArialMT-30"/>
       <use x="114.013672" xlink:href="#ArialMT-2e"/>
       <use x="141.796875" xlink:href="#ArialMT-30"/>
       <use x="197.412109" xlink:href="#ArialMT-32"/>
      </g>
     </g>
    </g>
    <g id="ytick_3">
     <g id="line2d_5">
      <path clip-path="url(#p5815e2fdc6)" d="M 135 212.035739 
L 316.956522 212.035739 
" style="fill:none;stroke:#ffffff;stroke-linecap:round;"/>
     </g>
     <g id="line2d_6"/>
     <g id="text_3">
      <!-- 0.00 -->
      <g style="fill:#262626;" transform="translate(108.539062 215.614645)scale(0.1 -0.1)">
       <use xlink:href="#ArialMT-30"/>
       <use x="55.615234" xlink:href="#ArialMT-2e"/>
       <use x="83.398438" xlink:href="#ArialMT-30"/>
       <use x="139.013672" xlink:href="#ArialMT-30"/>
      </g>
     </g>
    </g>
    <g id="ytick_4">
     <g id="line2d_7">
      <path clip-path="url(#p5815e2fdc6)" d="M 135 165.691948 
L 316.956522 165.691948 
" style="fill:none;stroke:#ffffff;stroke-linecap:round;"/>
     </g>
     <g id="line2d_8"/>
     <g id="text_4">
      <!-- 0.02 -->
      <g style="fill:#262626;" transform="translate(108.539062 169.270854)scale(0.1 -0.1)">
       <use xlink:href="#ArialMT-30"/>
       <use x="55.615234" xlink:href="#ArialMT-2e"/>
       <use x="83.398438" xlink:href="#ArialMT-30"/>
       <use x="139.013672" xlink:href="#ArialMT-32"/>
      </g>
     </g>
    </g>
    <g id="ytick_5">
     <g id="line2d_9">
      <path clip-path="url(#p5815e2fdc6)" d="M 135 119.348156 
L 316.956522 119.348156 
" style="fill:none;stroke:#ffffff;stroke-linecap:round;"/>
     </g>
     <g id="line2d_10"/>
     <g id="text_5">
      <!-- 0.04 -->
      <g style="fill:#262626;" transform="translate(108.539062 122.927062)scale(0.1 -0.1)">
       <use xlink:href="#ArialMT-30"/>
       <use x="55.615234" xlink:href="#ArialMT-2e"/>
       <use x="83.398438" xlink:href="#ArialMT-30"/>
       <use x="139.013672" xlink:href="#ArialMT-34"/>
      </g>
     </g>
    </g>
    <g id="ytick_6">
     <g id="line2d_11">
      <path clip-path="url(#p5815e2fdc6)" d="M 135 73.004365 
L 316.956522 73.004365 
" style="fill:none;stroke:#ffffff;stroke-linecap:round;"/>
     </g>
     <g id="line2d_12"/>
     <g id="text_6">
      <!-- 0.06 -->
      <g style="fill:#262626;" transform="translate(108.539062 76.583271)scale(0.1 -0.1)">
       <defs>
        <path d="M 3184 3459 
L 2625 3416 
Q 2550 3747 2413 3897 
Q 2184 4138 1850 4138 
Q 1581 4138 1378 3988 
Q 1113 3794 959 3422 
Q 806 3050 800 2363 
Q 1003 2672 1297 2822 
Q 1591 2972 1913 2972 
Q 2475 2972 2870 2558 
Q 3266 2144 3266 1488 
Q 3266 1056 3080 686 
Q 2894 316 2569 119 
Q 2244 -78 1831 -78 
Q 1128 -78 684 439 
Q 241 956 241 2144 
Q 241 3472 731 4075 
Q 1159 4600 1884 4600 
Q 2425 4600 2770 4297 
Q 3116 3994 3184 3459 
z
M 888 1484 
Q 888 1194 1011 928 
Q 1134 663 1356 523 
Q 1578 384 1822 384 
Q 2178 384 2434 671 
Q 2691 959 2691 1453 
Q 2691 1928 2437 2201 
Q 2184 2475 1800 2475 
Q 1419 2475 1153 2201 
Q 888 1928 888 1484 
z
" id="ArialMT-36" transform="scale(0.015625)"/>
       </defs>
       <use xlink:href="#ArialMT-30"/>
       <use x="55.615234" xlink:href="#ArialMT-2e"/>
       <use x="83.398438" xlink:href="#ArialMT-30"/>
       <use x="139.013672" xlink:href="#ArialMT-36"/>
      </g>
     </g>
    </g>
   </g>
   <g id="PathCollection_1">
    <defs>
     <path d="M 0 3.5 
C 0.928211 3.5 1.81853 3.131218 2.474874 2.474874 
C 3.131218 1.81853 3.5 0.928211 3.5 0 
C 3.5 -0.928211 3.131218 -1.81853 2.474874 -2.474874 
C 1.81853 -3.131218 0.928211 -3.5 0 -3.5 
C -0.928211 -3.5 -1.81853 -3.131218 -2.474874 -2.474874 
C -3.131218 -1.81853 -3.5 -0.928211 -3.5 0 
C -3.5 0.928211 -3.131218 1.81853 -2.474874 2.474874 
C -1.81853 3.131218 -0.928211 3.5 0 3.5 
z
" id="m2ecc59a305" style="stroke:#4c72b0;stroke-width:0.3;"/>
    </defs>
    <g clip-path="url(#p5815e2fdc6)">
     <use style="fill:#4c72b0;stroke:#4c72b0;stroke-width:0.3;" x="143.270751" xlink:href="#m2ecc59a305" y="221.746871"/>
     <use style="fill:#4c72b0;stroke:#4c72b0;stroke-width:0.3;" x="149.632867" xlink:href="#m2ecc59a305" y="186.651784"/>
     <use style="fill:#4c72b0;stroke:#4c72b0;stroke-width:0.3;" x="155.994983" xlink:href="#m2ecc59a305" y="249.922431"/>
     <use style="fill:#4c72b0;stroke:#4c72b0;stroke-width:0.3;" x="162.357099" xlink:href="#m2ecc59a305" y="226.037039"/>
     <use style="fill:#4c72b0;stroke:#4c72b0;stroke-width:0.3;" x="168.719216" xlink:href="#m2ecc59a305" y="223.634022"/>
     <use style="fill:#4c72b0;stroke:#4c72b0;stroke-width:0.3;" x="175.081332" xlink:href="#m2ecc59a305" y="145.104687"/>
     <use style="fill:#4c72b0;stroke:#4c72b0;stroke-width:0.3;" x="181.443448" xlink:href="#m2ecc59a305" y="204.07281"/>
     <use style="fill:#4c72b0;stroke:#4c72b0;stroke-width:0.3;" x="187.805564" xlink:href="#m2ecc59a305" y="189.840666"/>
     <use style="fill:#4c72b0;stroke:#4c72b0;stroke-width:0.3;" x="194.16768" xlink:href="#m2ecc59a305" y="222.792377"/>
     <use style="fill:#4c72b0;stroke:#4c72b0;stroke-width:0.3;" x="200.529796" xlink:href="#m2ecc59a305" y="93.647035"/>
     <use style="fill:#4c72b0;stroke:#4c72b0;stroke-width:0.3;" x="206.891912" xlink:href="#m2ecc59a305" y="218.092308"/>
     <use style="fill:#4c72b0;stroke:#4c72b0;stroke-width:0.3;" x="213.254029" xlink:href="#m2ecc59a305" y="302.645455"/>
     <use style="fill:#4c72b0;stroke:#4c72b0;stroke-width:0.3;" x="219.616145" xlink:href="#m2ecc59a305" y="223.18838"/>
     <use style="fill:#4c72b0;stroke:#4c72b0;stroke-width:0.3;" x="225.978261" xlink:href="#m2ecc59a305" y="239.165577"/>
     <use style="fill:#4c72b0;stroke:#4c72b0;stroke-width:0.3;" x="232.340377" xlink:href="#m2ecc59a305" y="203.503655"/>
     <use style="fill:#4c72b0;stroke:#4c72b0;stroke-width:0.3;" x="238.702493" xlink:href="#m2ecc59a305" y="174.486728"/>
     <use style="fill:#4c72b0;stroke:#4c72b0;stroke-width:0.3;" x="245.064609" xlink:href="#m2ecc59a305" y="234.088236"/>
     <use style="fill:#4c72b0;stroke:#4c72b0;stroke-width:0.3;" x="251.426725" xlink:href="#m2ecc59a305" y="226.318387"/>
     <use style="fill:#4c72b0;stroke:#4c72b0;stroke-width:0.3;" x="257.788842" xlink:href="#m2ecc59a305" y="157.759301"/>
     <use style="fill:#4c72b0;stroke:#4c72b0;stroke-width:0.3;" x="264.150958" xlink:href="#m2ecc59a305" y="216.310704"/>
     <use style="fill:#4c72b0;stroke:#4c72b0;stroke-width:0.3;" x="270.513074" xlink:href="#m2ecc59a305" y="241.053987"/>
     <use style="fill:#4c72b0;stroke:#4c72b0;stroke-width:0.3;" x="276.87519" xlink:href="#m2ecc59a305" y="209.599303"/>
     <use style="fill:#4c72b0;stroke:#4c72b0;stroke-width:0.3;" x="283.237306" xlink:href="#m2ecc59a305" y="207.157321"/>
     <use style="fill:#4c72b0;stroke:#4c72b0;stroke-width:0.3;" x="289.599422" xlink:href="#m2ecc59a305" y="238.923023"/>
     <use style="fill:#4c72b0;stroke:#4c72b0;stroke-width:0.3;" x="295.961538" xlink:href="#m2ecc59a305" y="232.122694"/>
     <use style="fill:#4c72b0;stroke:#4c72b0;stroke-width:0.3;" x="302.323655" xlink:href="#m2ecc59a305" y="205.006864"/>
     <use style="fill:#4c72b0;stroke:#4c72b0;stroke-width:0.3;" x="308.685771" xlink:href="#m2ecc59a305" y="235.536696"/>
    </g>
   </g>
   <g id="PathCollection_2">
    <defs>
     <path d="M 0 3.5 
C 0.928211 3.5 1.81853 3.131218 2.474874 2.474874 
C 3.131218 1.81853 3.5 0.928211 3.5 0 
C 3.5 -0.928211 3.131218 -1.81853 2.474874 -2.474874 
C 1.81853 -3.131218 0.928211 -3.5 0 -3.5 
C -0.928211 -3.5 -1.81853 -3.131218 -2.474874 -2.474874 
C -3.131218 -1.81853 -3.5 -0.928211 -3.5 0 
C -3.5 0.928211 -3.131218 1.81853 -2.474874 2.474874 
C -1.81853 3.131218 -0.928211 3.5 0 3.5 
z
" id="m14d6c0558e" style="stroke:#55a868;stroke-width:0.3;"/>
    </defs>
    <g clip-path="url(#p5815e2fdc6)">
     <use style="fill:#55a868;stroke:#55a868;stroke-width:0.3;" x="143.270751" xlink:href="#m14d6c0558e" y="221.486038"/>
     <use style="fill:#55a868;stroke:#55a868;stroke-width:0.3;" x="149.632867" xlink:href="#m14d6c0558e" y="248.427977"/>
     <use style="fill:#55a868;stroke:#55a868;stroke-width:0.3;" x="155.994983" xlink:href="#m14d6c0558e" y="281.22419"/>
     <use style="fill:#55a868;stroke:#55a868;stroke-width:0.3;" x="162.357099" xlink:href="#m14d6c0558e" y="206.287464"/>
     <use style="fill:#55a868;stroke:#55a868;stroke-width:0.3;" x="168.719216" xlink:href="#m14d6c0558e" y="207.873978"/>
     <use style="fill:#55a868;stroke:#55a868;stroke-width:0.3;" x="175.081332" xlink:href="#m14d6c0558e" y="248.597604"/>
     <use style="fill:#55a868;stroke:#55a868;stroke-width:0.3;" x="181.443448" xlink:href="#m14d6c0558e" y="170.399601"/>
     <use style="fill:#55a868;stroke:#55a868;stroke-width:0.3;" x="187.805564" xlink:href="#m14d6c0558e" y="242.076453"/>
     <use style="fill:#55a868;stroke:#55a868;stroke-width:0.3;" x="194.16768" xlink:href="#m14d6c0558e" y="201.519312"/>
     <use style="fill:#55a868;stroke:#55a868;stroke-width:0.3;" x="200.529796" xlink:href="#m14d6c0558e" y="173.304963"/>
     <use style="fill:#55a868;stroke:#55a868;stroke-width:0.3;" x="206.891912" xlink:href="#m14d6c0558e" y="219.763295"/>
     <use style="fill:#55a868;stroke:#55a868;stroke-width:0.3;" x="213.254029" xlink:href="#m14d6c0558e" y="287.770698"/>
     <use style="fill:#55a868;stroke:#55a868;stroke-width:0.3;" x="219.616145" xlink:href="#m14d6c0558e" y="204.443915"/>
     <use style="fill:#55a868;stroke:#55a868;stroke-width:0.3;" x="225.978261" xlink:href="#m14d6c0558e" y="287.78029"/>
     <use style="fill:#55a868;stroke:#55a868;stroke-width:0.3;" x="232.340377" xlink:href="#m14d6c0558e" y="267.353357"/>
     <use style="fill:#55a868;stroke:#55a868;stroke-width:0.3;" x="238.702493" xlink:href="#m14d6c0558e" y="214.232329"/>
     <use style="fill:#55a868;stroke:#55a868;stroke-width:0.3;" x="245.064609" xlink:href="#m14d6c0558e" y="199.068225"/>
     <use style="fill:#55a868;stroke:#55a868;stroke-width:0.3;" x="251.426725" xlink:href="#m14d6c0558e" y="259.984498"/>
     <use style="fill:#55a868;stroke:#55a868;stroke-width:0.3;" x="257.788842" xlink:href="#m14d6c0558e" y="194.149291"/>
     <use style="fill:#55a868;stroke:#55a868;stroke-width:0.3;" x="264.150958" xlink:href="#m14d6c0558e" y="177.568972"/>
     <use style="fill:#55a868;stroke:#55a868;stroke-width:0.3;" x="270.513074" xlink:href="#m14d6c0558e" y="237.773329"/>
     <use style="fill:#55a868;stroke:#55a868;stroke-width:0.3;" x="276.87519" xlink:href="#m14d6c0558e" y="229.062055"/>
     <use style="fill:#55a868;stroke:#55a868;stroke-width:0.3;" x="283.237306" xlink:href="#m14d6c0558e" y="267.57091"/>
     <use style="fill:#55a868;stroke:#55a868;stroke-width:0.3;" x="289.599422" xlink:href="#m14d6c0558e" y="188.062078"/>
     <use style="fill:#55a868;stroke:#55a868;stroke-width:0.3;" x="295.961538" xlink:href="#m14d6c0558e" y="233.331721"/>
     <use style="fill:#55a868;stroke:#55a868;stroke-width:0.3;" x="302.323655" xlink:href="#m14d6c0558e" y="244.619858"/>
     <use style="fill:#55a868;stroke:#55a868;stroke-width:0.3;" x="308.685771" xlink:href="#m14d6c0558e" y="251.512451"/>
    </g>
   </g>
   <g id="patch_3">
    <path d="M 135 315 
L 135 43.2 
" style="fill:none;"/>
   </g>
   <g id="patch_4">
    <path d="M 316.956522 315 
L 316.956522 43.2 
" style="fill:none;"/>
   </g>
   <g id="patch_5">
    <path d="M 135 315 
L 316.956522 315 
" style="fill:none;"/>
   </g>
   <g id="patch_6">
    <path d="M 135 43.2 
L 316.956522 43.2 
" style="fill:none;"/>
   </g>
   <g id="text_7">
    <!-- Western Union/PayPal -->
    <g style="fill:#262626;" transform="translate(165.725136 37.2)scale(0.12 -0.12)">
     <defs>
      <path d="M 1294 0 
L 78 4581 
L 700 4581 
L 1397 1578 
Q 1509 1106 1591 641 
Q 1766 1375 1797 1488 
L 2669 4581 
L 3400 4581 
L 4056 2263 
Q 4303 1400 4413 641 
Q 4500 1075 4641 1638 
L 5359 4581 
L 5969 4581 
L 4713 0 
L 4128 0 
L 3163 3491 
Q 3041 3928 3019 4028 
Q 2947 3713 2884 3491 
L 1913 0 
L 1294 0 
z
" id="ArialMT-57" transform="scale(0.015625)"/>
      <path d="M 2694 1069 
L 3275 997 
Q 3138 488 2766 206 
Q 2394 -75 1816 -75 
Q 1088 -75 661 373 
Q 234 822 234 1631 
Q 234 2469 665 2931 
Q 1097 3394 1784 3394 
Q 2450 3394 2872 2941 
Q 3294 2488 3294 1666 
Q 3294 1616 3291 1516 
L 816 1516 
Q 847 969 1125 678 
Q 1403 388 1819 388 
Q 2128 388 2347 550 
Q 2566 713 2694 1069 
z
M 847 1978 
L 2700 1978 
Q 2663 2397 2488 2606 
Q 2219 2931 1791 2931 
Q 1403 2931 1139 2672 
Q 875 2413 847 1978 
z
" id="ArialMT-65" transform="scale(0.015625)"/>
      <path d="M 197 991 
L 753 1078 
Q 800 744 1014 566 
Q 1228 388 1613 388 
Q 2000 388 2187 545 
Q 2375 703 2375 916 
Q 2375 1106 2209 1216 
Q 2094 1291 1634 1406 
Q 1016 1563 777 1677 
Q 538 1791 414 1992 
Q 291 2194 291 2438 
Q 291 2659 392 2848 
Q 494 3038 669 3163 
Q 800 3259 1026 3326 
Q 1253 3394 1513 3394 
Q 1903 3394 2198 3281 
Q 2494 3169 2634 2976 
Q 2775 2784 2828 2463 
L 2278 2388 
Q 2241 2644 2061 2787 
Q 1881 2931 1553 2931 
Q 1166 2931 1000 2803 
Q 834 2675 834 2503 
Q 834 2394 903 2306 
Q 972 2216 1119 2156 
Q 1203 2125 1616 2013 
Q 2213 1853 2448 1751 
Q 2684 1650 2818 1456 
Q 2953 1263 2953 975 
Q 2953 694 2789 445 
Q 2625 197 2315 61 
Q 2006 -75 1616 -75 
Q 969 -75 630 194 
Q 291 463 197 991 
z
" id="ArialMT-73" transform="scale(0.015625)"/>
      <path d="M 1650 503 
L 1731 6 
Q 1494 -44 1306 -44 
Q 1000 -44 831 53 
Q 663 150 594 308 
Q 525 466 525 972 
L 525 2881 
L 113 2881 
L 113 3319 
L 525 3319 
L 525 4141 
L 1084 4478 
L 1084 3319 
L 1650 3319 
L 1650 2881 
L 1084 2881 
L 1084 941 
Q 1084 700 1114 631 
Q 1144 563 1211 522 
Q 1278 481 1403 481 
Q 1497 481 1650 503 
z
" id="ArialMT-74" transform="scale(0.015625)"/>
      <path d="M 416 0 
L 416 3319 
L 922 3319 
L 922 2816 
Q 1116 3169 1280 3281 
Q 1444 3394 1641 3394 
Q 1925 3394 2219 3213 
L 2025 2691 
Q 1819 2813 1613 2813 
Q 1428 2813 1281 2702 
Q 1134 2591 1072 2394 
Q 978 2094 978 1738 
L 978 0 
L 416 0 
z
" id="ArialMT-72" transform="scale(0.015625)"/>
      <path d="M 422 0 
L 422 3319 
L 928 3319 
L 928 2847 
Q 1294 3394 1984 3394 
Q 2284 3394 2536 3286 
Q 2788 3178 2913 3003 
Q 3038 2828 3088 2588 
Q 3119 2431 3119 2041 
L 3119 0 
L 2556 0 
L 2556 2019 
Q 2556 2363 2490 2533 
Q 2425 2703 2258 2804 
Q 2091 2906 1866 2906 
Q 1506 2906 1245 2678 
Q 984 2450 984 1813 
L 984 0 
L 422 0 
z
" id="ArialMT-6e" transform="scale(0.015625)"/>
      <path id="ArialMT-20" transform="scale(0.015625)"/>
      <path d="M 3500 4581 
L 4106 4581 
L 4106 1934 
Q 4106 1244 3950 837 
Q 3794 431 3386 176 
Q 2978 -78 2316 -78 
Q 1672 -78 1262 144 
Q 853 366 678 786 
Q 503 1206 503 1934 
L 503 4581 
L 1109 4581 
L 1109 1938 
Q 1109 1341 1220 1058 
Q 1331 775 1601 622 
Q 1872 469 2263 469 
Q 2931 469 3215 772 
Q 3500 1075 3500 1938 
L 3500 4581 
z
" id="ArialMT-55" transform="scale(0.015625)"/>
      <path d="M 425 3934 
L 425 4581 
L 988 4581 
L 988 3934 
L 425 3934 
z
M 425 0 
L 425 3319 
L 988 3319 
L 988 0 
L 425 0 
z
" id="ArialMT-69" transform="scale(0.015625)"/>
      <path d="M 213 1659 
Q 213 2581 725 3025 
Q 1153 3394 1769 3394 
Q 2453 3394 2887 2945 
Q 3322 2497 3322 1706 
Q 3322 1066 3130 698 
Q 2938 331 2570 128 
Q 2203 -75 1769 -75 
Q 1072 -75 642 372 
Q 213 819 213 1659 
z
M 791 1659 
Q 791 1022 1069 705 
Q 1347 388 1769 388 
Q 2188 388 2466 706 
Q 2744 1025 2744 1678 
Q 2744 2294 2464 2611 
Q 2184 2928 1769 2928 
Q 1347 2928 1069 2612 
Q 791 2297 791 1659 
z
" id="ArialMT-6f" transform="scale(0.015625)"/>
      <path d="M 0 -78 
L 1328 4659 
L 1778 4659 
L 453 -78 
L 0 -78 
z
" id="ArialMT-2f" transform="scale(0.015625)"/>
      <path d="M 494 0 
L 494 4581 
L 2222 4581 
Q 2678 4581 2919 4538 
Q 3256 4481 3484 4323 
Q 3713 4166 3852 3881 
Q 3991 3597 3991 3256 
Q 3991 2672 3619 2267 
Q 3247 1863 2275 1863 
L 1100 1863 
L 1100 0 
L 494 0 
z
M 1100 2403 
L 2284 2403 
Q 2872 2403 3119 2622 
Q 3366 2841 3366 3238 
Q 3366 3525 3220 3729 
Q 3075 3934 2838 4000 
Q 2684 4041 2272 4041 
L 1100 4041 
L 1100 2403 
z
" id="ArialMT-50" transform="scale(0.015625)"/>
      <path d="M 2588 409 
Q 2275 144 1986 34 
Q 1697 -75 1366 -75 
Q 819 -75 525 192 
Q 231 459 231 875 
Q 231 1119 342 1320 
Q 453 1522 633 1644 
Q 813 1766 1038 1828 
Q 1203 1872 1538 1913 
Q 2219 1994 2541 2106 
Q 2544 2222 2544 2253 
Q 2544 2597 2384 2738 
Q 2169 2928 1744 2928 
Q 1347 2928 1158 2789 
Q 969 2650 878 2297 
L 328 2372 
Q 403 2725 575 2942 
Q 747 3159 1072 3276 
Q 1397 3394 1825 3394 
Q 2250 3394 2515 3294 
Q 2781 3194 2906 3042 
Q 3031 2891 3081 2659 
Q 3109 2516 3109 2141 
L 3109 1391 
Q 3109 606 3145 398 
Q 3181 191 3288 0 
L 2700 0 
Q 2613 175 2588 409 
z
M 2541 1666 
Q 2234 1541 1622 1453 
Q 1275 1403 1131 1340 
Q 988 1278 909 1158 
Q 831 1038 831 891 
Q 831 666 1001 516 
Q 1172 366 1500 366 
Q 1825 366 2078 508 
Q 2331 650 2450 897 
Q 2541 1088 2541 1459 
L 2541 1666 
z
" id="ArialMT-61" transform="scale(0.015625)"/>
      <path d="M 397 -1278 
L 334 -750 
Q 519 -800 656 -800 
Q 844 -800 956 -737 
Q 1069 -675 1141 -563 
Q 1194 -478 1313 -144 
Q 1328 -97 1363 -6 
L 103 3319 
L 709 3319 
L 1400 1397 
Q 1534 1031 1641 628 
Q 1738 1016 1872 1384 
L 2581 3319 
L 3144 3319 
L 1881 -56 
Q 1678 -603 1566 -809 
Q 1416 -1088 1222 -1217 
Q 1028 -1347 759 -1347 
Q 597 -1347 397 -1278 
z
" id="ArialMT-79" transform="scale(0.015625)"/>
      <path d="M 409 0 
L 409 4581 
L 972 4581 
L 972 0 
L 409 0 
z
" id="ArialMT-6c" transform="scale(0.015625)"/>
     </defs>
     <use xlink:href="#ArialMT-57"/>
     <use x="92.634766" xlink:href="#ArialMT-65"/>
     <use x="148.25" xlink:href="#ArialMT-73"/>
     <use x="198.25" xlink:href="#ArialMT-74"/>
     <use x="226.033203" xlink:href="#ArialMT-65"/>
     <use x="281.648438" xlink:href="#ArialMT-72"/>
     <use x="314.949219" xlink:href="#ArialMT-6e"/>
     <use x="370.564453" xlink:href="#ArialMT-20"/>
     <use x="398.347656" xlink:href="#ArialMT-55"/>
     <use x="470.564453" xlink:href="#ArialMT-6e"/>
     <use x="526.179688" xlink:href="#ArialMT-69"/>
     <use x="548.396484" xlink:href="#ArialMT-6f"/>
     <use x="604.011719" xlink:href="#ArialMT-6e"/>
     <use x="659.626953" xlink:href="#ArialMT-2f"/>
     <use x="687.410156" xlink:href="#ArialMT-50"/>
     <use x="754.109375" xlink:href="#ArialMT-61"/>
     <use x="809.724609" xlink:href="#ArialMT-79"/>
     <use x="859.724609" xlink:href="#ArialMT-50"/>
     <use x="926.423828" xlink:href="#ArialMT-61"/>
     <use x="982.039062" xlink:href="#ArialMT-6c"/>
    </g>
   </g>
  </g>
  <g id="axes_2">
   <g id="patch_7">
    <path d="M 353.347826 315 
L 535.304348 315 
L 535.304348 43.2 
L 353.347826 43.2 
z
" style="fill:#eaeaf2;"/>
   </g>
   <g id="matplotlib.axis_2">
    <g id="ytick_7">
     <g id="line2d_13">
      <path clip-path="url(#p0b22815a95)" d="M 353.347826 304.723322 
L 535.304348 304.723322 
" style="fill:none;stroke:#ffffff;stroke-linecap:round;"/>
     </g>
     <g id="line2d_14"/>
    </g>
    <g id="ytick_8">
     <g id="line2d_15">
      <path clip-path="url(#p0b22815a95)" d="M 353.347826 258.379531 
L 535.304348 258.379531 
" style="fill:none;stroke:#ffffff;stroke-linecap:round;"/>
     </g>
     <g id="line2d_16"/>
    </g>
    <g id="ytick_9">
     <g id="line2d_17">
      <path clip-path="url(#p0b22815a95)" d="M 353.347826 212.035739 
L 535.304348 212.035739 
" style="fill:none;stroke:#ffffff;stroke-linecap:round;"/>
     </g>
     <g id="line2d_18"/>
    </g>
    <g id="ytick_10">
     <g id="line2d_19">
      <path clip-path="url(#p0b22815a95)" d="M 353.347826 165.691948 
L 535.304348 165.691948 
" style="fill:none;stroke:#ffffff;stroke-linecap:round;"/>
     </g>
     <g id="line2d_20"/>
    </g>
    <g id="ytick_11">
     <g id="line2d_21">
      <path clip-path="url(#p0b22815a95)" d="M 353.347826 119.348156 
L 535.304348 119.348156 
" style="fill:none;stroke:#ffffff;stroke-linecap:round;"/>
     </g>
     <g id="line2d_22"/>
    </g>
    <g id="ytick_12">
     <g id="line2d_23">
      <path clip-path="url(#p0b22815a95)" d="M 353.347826 73.004365 
L 535.304348 73.004365 
" style="fill:none;stroke:#ffffff;stroke-linecap:round;"/>
     </g>
     <g id="line2d_24"/>
    </g>
   </g>
   <g id="PathCollection_3">
    <g clip-path="url(#p0b22815a95)">
     <use style="fill:#4c72b0;stroke:#4c72b0;stroke-width:0.3;" x="361.618577" xlink:href="#m2ecc59a305" y="200.714273"/>
     <use style="fill:#4c72b0;stroke:#4c72b0;stroke-width:0.3;" x="444.326087" xlink:href="#m2ecc59a305" y="196.583219"/>
     <use style="fill:#4c72b0;stroke:#4c72b0;stroke-width:0.3;" x="527.033597" xlink:href="#m2ecc59a305" y="252.208179"/>
    </g>
   </g>
   <g id="PathCollection_4">
    <g clip-path="url(#p0b22815a95)">
     <use style="fill:#55a868;stroke:#55a868;stroke-width:0.3;" x="361.618577" xlink:href="#m14d6c0558e" y="206.030168"/>
     <use style="fill:#55a868;stroke:#55a868;stroke-width:0.3;" x="444.326087" xlink:href="#m14d6c0558e" y="199.511773"/>
     <use style="fill:#55a868;stroke:#55a868;stroke-width:0.3;" x="527.033597" xlink:href="#m14d6c0558e" y="254.655039"/>
    </g>
   </g>
   <g id="patch_8">
    <path d="M 353.347826 315 
L 353.347826 43.2 
" style="fill:none;"/>
   </g>
   <g id="patch_9">
    <path d="M 535.304348 315 
L 535.304348 43.2 
" style="fill:none;"/>
   </g>
   <g id="patch_10">
    <path d="M 353.347826 315 
L 535.304348 315 
" style="fill:none;"/>
   </g>
   <g id="patch_11">
    <path d="M 353.347826 43.2 
L 535.304348 43.2 
" style="fill:none;"/>
   </g>
   <g id="text_8">
    <!-- EuroNet/PayPal -->
    <g style="fill:#262626;" transform="translate(401.638899 37.2)scale(0.12 -0.12)">
     <defs>
      <path d="M 506 0 
L 506 4581 
L 3819 4581 
L 3819 4041 
L 1113 4041 
L 1113 2638 
L 3647 2638 
L 3647 2100 
L 1113 2100 
L 1113 541 
L 3925 541 
L 3925 0 
L 506 0 
z
" id="ArialMT-45" transform="scale(0.015625)"/>
      <path d="M 2597 0 
L 2597 488 
Q 2209 -75 1544 -75 
Q 1250 -75 995 37 
Q 741 150 617 320 
Q 494 491 444 738 
Q 409 903 409 1263 
L 409 3319 
L 972 3319 
L 972 1478 
Q 972 1038 1006 884 
Q 1059 663 1231 536 
Q 1403 409 1656 409 
Q 1909 409 2131 539 
Q 2353 669 2445 892 
Q 2538 1116 2538 1541 
L 2538 3319 
L 3100 3319 
L 3100 0 
L 2597 0 
z
" id="ArialMT-75" transform="scale(0.015625)"/>
      <path d="M 488 0 
L 488 4581 
L 1109 4581 
L 3516 984 
L 3516 4581 
L 4097 4581 
L 4097 0 
L 3475 0 
L 1069 3600 
L 1069 0 
L 488 0 
z
" id="ArialMT-4e" transform="scale(0.015625)"/>
     </defs>
     <use xlink:href="#ArialMT-45"/>
     <use x="66.699219" xlink:href="#ArialMT-75"/>
     <use x="122.314453" xlink:href="#ArialMT-72"/>
     <use x="155.615234" xlink:href="#ArialMT-6f"/>
     <use x="211.230469" xlink:href="#ArialMT-4e"/>
     <use x="283.447266" xlink:href="#ArialMT-65"/>
     <use x="339.0625" xlink:href="#ArialMT-74"/>
     <use x="366.845703" xlink:href="#ArialMT-2f"/>
     <use x="394.628906" xlink:href="#ArialMT-50"/>
     <use x="461.328125" xlink:href="#ArialMT-61"/>
     <use x="516.943359" xlink:href="#ArialMT-79"/>
     <use x="566.943359" xlink:href="#ArialMT-50"/>
     <use x="633.642578" xlink:href="#ArialMT-61"/>
     <use x="689.257812" xlink:href="#ArialMT-6c"/>
    </g>
   </g>
  </g>
  <g id="axes_3">
   <g id="patch_12">
    <path d="M 571.695652 315 
L 753.652174 315 
L 753.652174 43.2 
L 571.695652 43.2 
z
" style="fill:#eaeaf2;"/>
   </g>
   <g id="matplotlib.axis_3">
    <g id="ytick_13">
     <g id="line2d_25">
      <path clip-path="url(#pf677197c19)" d="M 571.695652 304.723322 
L 753.652174 304.723322 
" style="fill:none;stroke:#ffffff;stroke-linecap:round;"/>
     </g>
     <g id="line2d_26"/>
    </g>
    <g id="ytick_14">
     <g id="line2d_27">
      <path clip-path="url(#pf677197c19)" d="M 571.695652 258.379531 
L 753.652174 258.379531 
" style="fill:none;stroke:#ffffff;stroke-linecap:round;"/>
     </g>
     <g id="line2d_28"/>
    </g>
    <g id="ytick_15">
     <g id="line2d_29">
      <path clip-path="url(#pf677197c19)" d="M 571.695652 212.035739 
L 753.652174 212.035739 
" style="fill:none;stroke:#ffffff;stroke-linecap:round;"/>
     </g>
     <g id="line2d_30"/>
    </g>
    <g id="ytick_16">
     <g id="line2d_31">
      <path clip-path="url(#pf677197c19)" d="M 571.695652 165.691948 
L 753.652174 165.691948 
" style="fill:none;stroke:#ffffff;stroke-linecap:round;"/>
     </g>
     <g id="line2d_32"/>
    </g>
    <g id="ytick_17">
     <g id="line2d_33">
      <path clip-path="url(#pf677197c19)" d="M 571.695652 119.348156 
L 753.652174 119.348156 
" style="fill:none;stroke:#ffffff;stroke-linecap:round;"/>
     </g>
     <g id="line2d_34"/>
    </g>
    <g id="ytick_18">
     <g id="line2d_35">
      <path clip-path="url(#pf677197c19)" d="M 571.695652 73.004365 
L 753.652174 73.004365 
" style="fill:none;stroke:#ffffff;stroke-linecap:round;"/>
     </g>
     <g id="line2d_36"/>
    </g>
   </g>
   <g id="PathCollection_5"/>
   <g id="PathCollection_6"/>
   <g id="patch_13">
    <path d="M 571.695652 315 
L 571.695652 43.2 
" style="fill:none;"/>
   </g>
   <g id="patch_14">
    <path d="M 753.652174 315 
L 753.652174 43.2 
" style="fill:none;"/>
   </g>
   <g id="patch_15">
    <path d="M 571.695652 315 
L 753.652174 315 
" style="fill:none;"/>
   </g>
   <g id="patch_16">
    <path d="M 571.695652 43.2 
L 753.652174 43.2 
" style="fill:none;"/>
   </g>
   <g id="text_9">
    <!-- MoneyGram/PayPal -->
    <g style="fill:#262626;" transform="translate(608.989851 37.2)scale(0.12 -0.12)">
     <defs>
      <path d="M 475 0 
L 475 4581 
L 1388 4581 
L 2472 1338 
Q 2622 884 2691 659 
Q 2769 909 2934 1394 
L 4031 4581 
L 4847 4581 
L 4847 0 
L 4263 0 
L 4263 3834 
L 2931 0 
L 2384 0 
L 1059 3900 
L 1059 0 
L 475 0 
z
" id="ArialMT-4d" transform="scale(0.015625)"/>
      <path d="M 2638 1797 
L 2638 2334 
L 4578 2338 
L 4578 638 
Q 4131 281 3656 101 
Q 3181 -78 2681 -78 
Q 2006 -78 1454 211 
Q 903 500 622 1047 
Q 341 1594 341 2269 
Q 341 2938 620 3517 
Q 900 4097 1425 4378 
Q 1950 4659 2634 4659 
Q 3131 4659 3532 4498 
Q 3934 4338 4162 4050 
Q 4391 3763 4509 3300 
L 3963 3150 
Q 3859 3500 3706 3700 
Q 3553 3900 3268 4020 
Q 2984 4141 2638 4141 
Q 2222 4141 1919 4014 
Q 1616 3888 1430 3681 
Q 1244 3475 1141 3228 
Q 966 2803 966 2306 
Q 966 1694 1177 1281 
Q 1388 869 1791 669 
Q 2194 469 2647 469 
Q 3041 469 3416 620 
Q 3791 772 3984 944 
L 3984 1797 
L 2638 1797 
z
" id="ArialMT-47" transform="scale(0.015625)"/>
      <path d="M 422 0 
L 422 3319 
L 925 3319 
L 925 2853 
Q 1081 3097 1340 3245 
Q 1600 3394 1931 3394 
Q 2300 3394 2536 3241 
Q 2772 3088 2869 2813 
Q 3263 3394 3894 3394 
Q 4388 3394 4653 3120 
Q 4919 2847 4919 2278 
L 4919 0 
L 4359 0 
L 4359 2091 
Q 4359 2428 4304 2576 
Q 4250 2725 4106 2815 
Q 3963 2906 3769 2906 
Q 3419 2906 3187 2673 
Q 2956 2441 2956 1928 
L 2956 0 
L 2394 0 
L 2394 2156 
Q 2394 2531 2256 2718 
Q 2119 2906 1806 2906 
Q 1569 2906 1367 2781 
Q 1166 2656 1075 2415 
Q 984 2175 984 1722 
L 984 0 
L 422 0 
z
" id="ArialMT-6d" transform="scale(0.015625)"/>
     </defs>
     <use xlink:href="#ArialMT-4d"/>
     <use x="83.300781" xlink:href="#ArialMT-6f"/>
     <use x="138.916016" xlink:href="#ArialMT-6e"/>
     <use x="194.53125" xlink:href="#ArialMT-65"/>
     <use x="250.146484" xlink:href="#ArialMT-79"/>
     <use x="300.146484" xlink:href="#ArialMT-47"/>
     <use x="377.929688" xlink:href="#ArialMT-72"/>
     <use x="411.230469" xlink:href="#ArialMT-61"/>
     <use x="466.845703" xlink:href="#ArialMT-6d"/>
     <use x="550.146484" xlink:href="#ArialMT-2f"/>
     <use x="577.929688" xlink:href="#ArialMT-50"/>
     <use x="644.628906" xlink:href="#ArialMT-61"/>
     <use x="700.244141" xlink:href="#ArialMT-79"/>
     <use x="750.244141" xlink:href="#ArialMT-50"/>
     <use x="816.943359" xlink:href="#ArialMT-61"/>
     <use x="872.558594" xlink:href="#ArialMT-6c"/>
    </g>
   </g>
  </g>
  <g id="axes_4">
   <g id="patch_17">
    <path d="M 790.043478 315 
L 972 315 
L 972 43.2 
L 790.043478 43.2 
z
" style="fill:#eaeaf2;"/>
   </g>
   <g id="matplotlib.axis_4">
    <g id="ytick_19">
     <g id="line2d_37">
      <path clip-path="url(#pddf56d1a4e)" d="M 790.043478 304.723322 
L 972 304.723322 
" style="fill:none;stroke:#ffffff;stroke-linecap:round;"/>
     </g>
     <g id="line2d_38"/>
    </g>
    <g id="ytick_20">
     <g id="line2d_39">
      <path clip-path="url(#pddf56d1a4e)" d="M 790.043478 258.379531 
L 972 258.379531 
" style="fill:none;stroke:#ffffff;stroke-linecap:round;"/>
     </g>
     <g id="line2d_40"/>
    </g>
    <g id="ytick_21">
     <g id="line2d_41">
      <path clip-path="url(#pddf56d1a4e)" d="M 790.043478 212.035739 
L 972 212.035739 
" style="fill:none;stroke:#ffffff;stroke-linecap:round;"/>
     </g>
     <g id="line2d_42"/>
    </g>
    <g id="ytick_22">
     <g id="line2d_43">
      <path clip-path="url(#pddf56d1a4e)" d="M 790.043478 165.691948 
L 972 165.691948 
" style="fill:none;stroke:#ffffff;stroke-linecap:round;"/>
     </g>
     <g id="line2d_44"/>
    </g>
    <g id="ytick_23">
     <g id="line2d_45">
      <path clip-path="url(#pddf56d1a4e)" d="M 790.043478 119.348156 
L 972 119.348156 
" style="fill:none;stroke:#ffffff;stroke-linecap:round;"/>
     </g>
     <g id="line2d_46"/>
    </g>
    <g id="ytick_24">
     <g id="line2d_47">
      <path clip-path="url(#pddf56d1a4e)" d="M 790.043478 73.004365 
L 972 73.004365 
" style="fill:none;stroke:#ffffff;stroke-linecap:round;"/>
     </g>
     <g id="line2d_48"/>
    </g>
   </g>
   <g id="PathCollection_7">
    <g clip-path="url(#pddf56d1a4e)">
     <use style="fill:#4c72b0;stroke:#4c72b0;stroke-width:0.3;" x="798.314229" xlink:href="#m2ecc59a305" y="195.391874"/>
     <use style="fill:#4c72b0;stroke:#4c72b0;stroke-width:0.3;" x="806.191135" xlink:href="#m2ecc59a305" y="244.975236"/>
     <use style="fill:#4c72b0;stroke:#4c72b0;stroke-width:0.3;" x="814.068041" xlink:href="#m2ecc59a305" y="183.907537"/>
     <use style="fill:#4c72b0;stroke:#4c72b0;stroke-width:0.3;" x="821.944946" xlink:href="#m2ecc59a305" y="209.842618"/>
     <use style="fill:#4c72b0;stroke:#4c72b0;stroke-width:0.3;" x="829.821852" xlink:href="#m2ecc59a305" y="196.672266"/>
     <use style="fill:#4c72b0;stroke:#4c72b0;stroke-width:0.3;" x="837.698758" xlink:href="#m2ecc59a305" y="220.242532"/>
     <use style="fill:#4c72b0;stroke:#4c72b0;stroke-width:0.3;" x="845.575663" xlink:href="#m2ecc59a305" y="235.174463"/>
     <use style="fill:#4c72b0;stroke:#4c72b0;stroke-width:0.3;" x="853.452569" xlink:href="#m2ecc59a305" y="264.788444"/>
     <use style="fill:#4c72b0;stroke:#4c72b0;stroke-width:0.3;" x="861.329475" xlink:href="#m2ecc59a305" y="248.58244"/>
     <use style="fill:#4c72b0;stroke:#4c72b0;stroke-width:0.3;" x="869.206381" xlink:href="#m2ecc59a305" y="178.087156"/>
     <use style="fill:#4c72b0;stroke:#4c72b0;stroke-width:0.3;" x="877.083286" xlink:href="#m2ecc59a305" y="217.808634"/>
     <use style="fill:#4c72b0;stroke:#4c72b0;stroke-width:0.3;" x="884.960192" xlink:href="#m2ecc59a305" y="229.025321"/>
     <use style="fill:#4c72b0;stroke:#4c72b0;stroke-width:0.3;" x="892.837098" xlink:href="#m2ecc59a305" y="204.603935"/>
     <use style="fill:#4c72b0;stroke:#4c72b0;stroke-width:0.3;" x="900.714003" xlink:href="#m2ecc59a305" y="214.544384"/>
     <use style="fill:#4c72b0;stroke:#4c72b0;stroke-width:0.3;" x="908.590909" xlink:href="#m2ecc59a305" y="243.67057"/>
     <use style="fill:#4c72b0;stroke:#4c72b0;stroke-width:0.3;" x="916.467815" xlink:href="#m2ecc59a305" y="212.3447"/>
     <use style="fill:#4c72b0;stroke:#4c72b0;stroke-width:0.3;" x="924.34472" xlink:href="#m2ecc59a305" y="234.704335"/>
     <use style="fill:#4c72b0;stroke:#4c72b0;stroke-width:0.3;" x="932.221626" xlink:href="#m2ecc59a305" y="231.276703"/>
     <use style="fill:#4c72b0;stroke:#4c72b0;stroke-width:0.3;" x="940.098532" xlink:href="#m2ecc59a305" y="206.542161"/>
     <use style="fill:#4c72b0;stroke:#4c72b0;stroke-width:0.3;" x="947.975438" xlink:href="#m2ecc59a305" y="254.865142"/>
     <use style="fill:#4c72b0;stroke:#4c72b0;stroke-width:0.3;" x="955.852343" xlink:href="#m2ecc59a305" y="209.689042"/>
     <use style="fill:#4c72b0;stroke:#4c72b0;stroke-width:0.3;" x="963.729249" xlink:href="#m2ecc59a305" y="260.591731"/>
    </g>
   </g>
   <g id="PathCollection_8">
    <g clip-path="url(#pddf56d1a4e)">
     <use style="fill:#55a868;stroke:#55a868;stroke-width:0.3;" x="798.314229" xlink:href="#m14d6c0558e" y="216.664439"/>
     <use style="fill:#55a868;stroke:#55a868;stroke-width:0.3;" x="806.191135" xlink:href="#m14d6c0558e" y="55.554545"/>
     <use style="fill:#55a868;stroke:#55a868;stroke-width:0.3;" x="814.068041" xlink:href="#m14d6c0558e" y="234.328355"/>
     <use style="fill:#55a868;stroke:#55a868;stroke-width:0.3;" x="821.944946" xlink:href="#m14d6c0558e" y="210.355406"/>
     <use style="fill:#55a868;stroke:#55a868;stroke-width:0.3;" x="829.821852" xlink:href="#m14d6c0558e" y="206.030168"/>
     <use style="fill:#55a868;stroke:#55a868;stroke-width:0.3;" x="837.698758" xlink:href="#m14d6c0558e" y="199.511773"/>
     <use style="fill:#55a868;stroke:#55a868;stroke-width:0.3;" x="845.575663" xlink:href="#m14d6c0558e" y="233.410775"/>
     <use style="fill:#55a868;stroke:#55a868;stroke-width:0.3;" x="853.452569" xlink:href="#m14d6c0558e" y="298.740157"/>
     <use style="fill:#55a868;stroke:#55a868;stroke-width:0.3;" x="861.329475" xlink:href="#m14d6c0558e" y="190.343977"/>
     <use style="fill:#55a868;stroke:#55a868;stroke-width:0.3;" x="869.206381" xlink:href="#m14d6c0558e" y="183.698879"/>
     <use style="fill:#55a868;stroke:#55a868;stroke-width:0.3;" x="877.083286" xlink:href="#m14d6c0558e" y="204.154077"/>
     <use style="fill:#55a868;stroke:#55a868;stroke-width:0.3;" x="884.960192" xlink:href="#m14d6c0558e" y="213.252459"/>
     <use style="fill:#55a868;stroke:#55a868;stroke-width:0.3;" x="892.837098" xlink:href="#m14d6c0558e" y="196.835073"/>
     <use style="fill:#55a868;stroke:#55a868;stroke-width:0.3;" x="900.714003" xlink:href="#m14d6c0558e" y="240.570849"/>
     <use style="fill:#55a868;stroke:#55a868;stroke-width:0.3;" x="908.590909" xlink:href="#m14d6c0558e" y="253.233409"/>
     <use style="fill:#55a868;stroke:#55a868;stroke-width:0.3;" x="916.467815" xlink:href="#m14d6c0558e" y="253.934058"/>
     <use style="fill:#55a868;stroke:#55a868;stroke-width:0.3;" x="924.34472" xlink:href="#m14d6c0558e" y="257.644553"/>
     <use style="fill:#55a868;stroke:#55a868;stroke-width:0.3;" x="932.221626" xlink:href="#m14d6c0558e" y="261.734129"/>
     <use style="fill:#55a868;stroke:#55a868;stroke-width:0.3;" x="940.098532" xlink:href="#m14d6c0558e" y="200.480284"/>
     <use style="fill:#55a868;stroke:#55a868;stroke-width:0.3;" x="947.975438" xlink:href="#m14d6c0558e" y="228.465273"/>
     <use style="fill:#55a868;stroke:#55a868;stroke-width:0.3;" x="955.852343" xlink:href="#m14d6c0558e" y="202.493721"/>
     <use style="fill:#55a868;stroke:#55a868;stroke-width:0.3;" x="963.729249" xlink:href="#m14d6c0558e" y="283.124512"/>
    </g>
   </g>
   <g id="patch_18">
    <path d="M 790.043478 315 
L 790.043478 43.2 
" style="fill:none;"/>
   </g>
   <g id="patch_19">
    <path d="M 972 315 
L 972 43.2 
" style="fill:none;"/>
   </g>
   <g id="patch_20">
    <path d="M 790.043478 315 
L 972 315 
" style="fill:none;"/>
   </g>
   <g id="patch_21">
    <path d="M 790.043478 43.2 
L 972 43.2 
" style="fill:none;"/>
   </g>
   <g id="text_10">
    <!-- Visa/PayPal -->
    <g style="fill:#262626;" transform="translate(848.777364 37.2)scale(0.12 -0.12)">
     <defs>
      <path d="M 1803 0 
L 28 4581 
L 684 4581 
L 1875 1253 
Q 2019 853 2116 503 
Q 2222 878 2363 1253 
L 3600 4581 
L 4219 4581 
L 2425 0 
L 1803 0 
z
" id="ArialMT-56" transform="scale(0.015625)"/>
     </defs>
     <use xlink:href="#ArialMT-56"/>
     <use x="64.949219" xlink:href="#ArialMT-69"/>
     <use x="87.166016" xlink:href="#ArialMT-73"/>
     <use x="137.166016" xlink:href="#ArialMT-61"/>
     <use x="192.78125" xlink:href="#ArialMT-2f"/>
     <use x="220.564453" xlink:href="#ArialMT-50"/>
     <use x="287.263672" xlink:href="#ArialMT-61"/>
     <use x="342.878906" xlink:href="#ArialMT-79"/>
     <use x="392.878906" xlink:href="#ArialMT-50"/>
     <use x="459.578125" xlink:href="#ArialMT-61"/>
     <use x="515.193359" xlink:href="#ArialMT-6c"/>
    </g>
   </g>
  </g>
  <g id="legend_1">
   <g id="PathCollection_9">
    <g>
     <use style="fill:#4c72b0;stroke:#4c72b0;stroke-width:0.3;" x="987.040625" xlink:href="#m2ecc59a305" y="13.532812"/>
    </g>
   </g>
   <g id="text_11">
    <!-- Western Union -->
    <g style="fill:#262626;" transform="translate(1005.040625 16.157812)scale(0.1 -0.1)">
     <use xlink:href="#ArialMT-57"/>
     <use x="92.634766" xlink:href="#ArialMT-65"/>
     <use x="148.25" xlink:href="#ArialMT-73"/>
     <use x="198.25" xlink:href="#ArialMT-74"/>
     <use x="226.033203" xlink:href="#ArialMT-65"/>
     <use x="281.648438" xlink:href="#ArialMT-72"/>
     <use x="314.949219" xlink:href="#ArialMT-6e"/>
     <use x="370.564453" xlink:href="#ArialMT-20"/>
     <use x="398.347656" xlink:href="#ArialMT-55"/>
     <use x="470.564453" xlink:href="#ArialMT-6e"/>
     <use x="526.179688" xlink:href="#ArialMT-69"/>
     <use x="548.396484" xlink:href="#ArialMT-6f"/>
     <use x="604.011719" xlink:href="#ArialMT-6e"/>
    </g>
   </g>
   <g id="PathCollection_10">
    <g>
     <use style="fill:#55a868;stroke:#55a868;stroke-width:0.3;" x="987.040625" xlink:href="#m14d6c0558e" y="27.678125"/>
    </g>
   </g>
   <g id="text_12">
    <!-- PayPal -->
    <g style="fill:#262626;" transform="translate(1005.040625 30.303125)scale(0.1 -0.1)">
     <use xlink:href="#ArialMT-50"/>
     <use x="66.699219" xlink:href="#ArialMT-61"/>
     <use x="122.314453" xlink:href="#ArialMT-79"/>
     <use x="172.314453" xlink:href="#ArialMT-50"/>
     <use x="239.013672" xlink:href="#ArialMT-61"/>
     <use x="294.628906" xlink:href="#ArialMT-6c"/>
    </g>
   </g>
   <g id="PathCollection_11">
    <g>
     <use style="fill:#4c72b0;stroke:#4c72b0;stroke-width:0.3;" x="987.040625" xlink:href="#m2ecc59a305" y="41.940625"/>
    </g>
   </g>
   <g id="text_13">
    <!-- EuroNet -->
    <g style="fill:#262626;" transform="translate(1005.040625 44.565625)scale(0.1 -0.1)">
     <use xlink:href="#ArialMT-45"/>
     <use x="66.699219" xlink:href="#ArialMT-75"/>
     <use x="122.314453" xlink:href="#ArialMT-72"/>
     <use x="155.615234" xlink:href="#ArialMT-6f"/>
     <use x="211.230469" xlink:href="#ArialMT-4e"/>
     <use x="283.447266" xlink:href="#ArialMT-65"/>
     <use x="339.0625" xlink:href="#ArialMT-74"/>
    </g>
   </g>
   <g id="PathCollection_12">
    <g>
     <use style="fill:#55a868;stroke:#55a868;stroke-width:0.3;" x="987.040625" xlink:href="#m14d6c0558e" y="56.085938"/>
    </g>
   </g>
   <g id="text_14">
    <!-- PayPal -->
    <g style="fill:#262626;" transform="translate(1005.040625 58.710938)scale(0.1 -0.1)">
     <use xlink:href="#ArialMT-50"/>
     <use x="66.699219" xlink:href="#ArialMT-61"/>
     <use x="122.314453" xlink:href="#ArialMT-79"/>
     <use x="172.314453" xlink:href="#ArialMT-50"/>
     <use x="239.013672" xlink:href="#ArialMT-61"/>
     <use x="294.628906" xlink:href="#ArialMT-6c"/>
    </g>
   </g>
   <g id="PathCollection_13">
    <g>
     <use style="fill:#4c72b0;stroke:#4c72b0;stroke-width:0.3;" x="987.040625" xlink:href="#m2ecc59a305" y="70.470312"/>
    </g>
   </g>
   <g id="text_15">
    <!-- MoneyGram -->
    <g style="fill:#262626;" transform="translate(1005.040625 73.095312)scale(0.1 -0.1)">
     <use xlink:href="#ArialMT-4d"/>
     <use x="83.300781" xlink:href="#ArialMT-6f"/>
     <use x="138.916016" xlink:href="#ArialMT-6e"/>
     <use x="194.53125" xlink:href="#ArialMT-65"/>
     <use x="250.146484" xlink:href="#ArialMT-79"/>
     <use x="300.146484" xlink:href="#ArialMT-47"/>
     <use x="377.929688" xlink:href="#ArialMT-72"/>
     <use x="411.230469" xlink:href="#ArialMT-61"/>
     <use x="466.845703" xlink:href="#ArialMT-6d"/>
    </g>
   </g>
   <g id="PathCollection_14">
    <g>
     <use style="fill:#55a868;stroke:#55a868;stroke-width:0.3;" x="987.040625" xlink:href="#m14d6c0558e" y="84.732812"/>
    </g>
   </g>
   <g id="text_16">
    <!-- PayPal -->
    <g style="fill:#262626;" transform="translate(1005.040625 87.357812)scale(0.1 -0.1)">
     <use xlink:href="#ArialMT-50"/>
     <use x="66.699219" xlink:href="#ArialMT-61"/>
     <use x="122.314453" xlink:href="#ArialMT-79"/>
     <use x="172.314453" xlink:href="#ArialMT-50"/>
     <use x="239.013672" xlink:href="#ArialMT-61"/>
     <use x="294.628906" xlink:href="#ArialMT-6c"/>
    </g>
   </g>
   <g id="PathCollection_15">
    <g>
     <use style="fill:#4c72b0;stroke:#4c72b0;stroke-width:0.3;" x="987.040625" xlink:href="#m2ecc59a305" y="98.995312"/>
    </g>
   </g>
   <g id="text_17">
    <!-- Visa -->
    <g style="fill:#262626;" transform="translate(1005.040625 101.620312)scale(0.1 -0.1)">
     <use xlink:href="#ArialMT-56"/>
     <use x="64.949219" xlink:href="#ArialMT-69"/>
     <use x="87.166016" xlink:href="#ArialMT-73"/>
     <use x="137.166016" xlink:href="#ArialMT-61"/>
    </g>
   </g>
   <g id="PathCollection_16">
    <g>
     <use style="fill:#55a868;stroke:#55a868;stroke-width:0.3;" x="987.040625" xlink:href="#m14d6c0558e" y="113.140625"/>
    </g>
   </g>
   <g id="text_18">
    <!-- PayPal -->
    <g style="fill:#262626;" transform="translate(1005.040625 115.765625)scale(0.1 -0.1)">
     <use xlink:href="#ArialMT-50"/>
     <use x="66.699219" xlink:href="#ArialMT-61"/>
     <use x="122.314453" xlink:href="#ArialMT-79"/>
     <use x="172.314453" xlink:href="#ArialMT-50"/>
     <use x="239.013672" xlink:href="#ArialMT-61"/>
     <use x="294.628906" xlink:href="#ArialMT-6c"/>
    </g>
   </g>
  </g>
 </g>
 <defs>
  <clipPath id="p5815e2fdc6">
   <rect height="271.8" width="181.956522" x="135" y="43.2"/>
  </clipPath>
  <clipPath id="p0b22815a95">
   <rect height="271.8" width="181.956522" x="353.347826" y="43.2"/>
  </clipPath>
  <clipPath id="pf677197c19">
   <rect height="271.8" width="181.956522" x="571.695652" y="43.2"/>
  </clipPath>
  <clipPath id="pddf56d1a4e">
   <rect height="271.8" width="181.956522" x="790.043478" y="43.2"/>
  </clipPath>
 </defs>
</svg>
